<?xml version="1.0" encoding="UTF-8" standalone="no"?>
<!DOCTYPE svg PUBLIC "-//W3C//DTD SVG 1.1//EN" "http://www.w3.org/Graphics/SVG/1.1/DTD/svg11.dtd">
<svg width="100%" height="100%" viewBox="0 0 24 25" version="1.1" xmlns="http://www.w3.org/2000/svg" xmlns:xlink="http://www.w3.org/1999/xlink" xml:space="preserve" xmlns:serif="http://www.serif.com/" style="fill-rule:evenodd;clip-rule:evenodd;stroke-linejoin:round;stroke-miterlimit:2;">
    <g transform="matrix(0.0526034,0,0,0.0526034,0.216829,-0.966481)">
        <path d="M442,114L6,114C2.708,114 0,111.292 0,108L0,84C-0,80.708 2.708,78 6,78L442,78C445.292,78 448,80.708 448,84L448,108C448,111.292 445.292,114 442,114ZM442,274L6,274C2.708,274 0,271.292 0,268L0,244C-0,240.708 2.708,238 6,238L442,238C445.292,238 448,240.708 448,244L448,268C448,271.292 445.292,274 442,274ZM442,434L6,434C2.708,434 0,431.292 0,428L0,404C-0,400.708 2.708,398 6,398L442,398C445.292,398 448,400.708 448,404L448,428C448,431.292 445.292,434 442,434Z" style="fill-rule:nonzero;"/>
    </g>
</svg>
